<svg width="100%" height="100%" id="svg" viewBox="0 0 1440 390" xmlns="http://www.w3.org/2000/svg" class="transition duration-300 ease-in-out delay-150"><path d="M 0,400 L 0,75 C 73.96172248803828,90.6267942583732 147.92344497607655,106.2535885167464 241,94 C 334.07655502392345,81.7464114832536 446.26794258373207,41.612440191387556 560,48 C 673.7320574162679,54.387559808612444 789.0047846889953,107.29665071770334 897,109 C 1004.9952153110047,110.70334928229666 1105.712918660287,61.20095693779904 1195,47 C 1284.287081339713,32.79904306220096 1362.1435406698565,53.899521531100476 1440,75 L 1440,400 L 0,400 Z" stroke="none" stroke-width="0" fill="#8ec3b8" fill-opacity="0.4" class="transition-all duration-300 ease-in-out delay-150 path-0" transform="rotate(-180 720 200)"></path><path d="M 0,400 L 0,175 C 97.91387559808612,170.05263157894737 195.82775119617224,165.10526315789474 275,157 C 354.17224880382776,148.89473684210526 414.6028708133972,137.63157894736844 525,138 C 635.3971291866028,138.36842105263156 795.7607655502393,150.3684210526316 892,166 C 988.2392344497607,181.6315789473684 1020.3540669856459,200.89473684210526 1101,203 C 1181.6459330143541,205.10526315789474 1310.8229665071772,190.05263157894737 1440,175 L 1440,400 L 0,400 Z" stroke="none" stroke-width="0" fill="#8ec3b8" fill-opacity="0.53" class="transition-all duration-300 ease-in-out delay-150 path-1" transform="rotate(-180 720 200)"></path><path d="M 0,400 L 0,275 C 110.72727272727272,277.7081339712919 221.45454545454544,280.4162679425837 329,286 C 436.54545454545456,291.5837320574163 540.9090909090909,300.0430622009569 613,301 C 685.0909090909091,301.9569377990431 724.9090909090909,295.41148325358853 818,293 C 911.0909090909091,290.58851674641147 1057.4545454545455,292.31100478468903 1170,290 C 1282.5454545454545,287.68899521531097 1361.2727272727273,281.3444976076555 1440,275 L 1440,400 L 0,400 Z" stroke="none" stroke-width="0" fill="#8ec3b8" fill-opacity="1" class="transition-all duration-300 ease-in-out delay-150 path-2" transform="rotate(-180 720 200)"></path></svg>